<svg xmlns="http://www.w3.org/2000/svg" viewBox="0 0 1200 1320" role="img" aria-labelledby="title desc">
  <title id="title">Marvelous Black Centerline Crewneck</title>
  <desc id="desc">A premium black crewneck mockup for Marvelous Black.</desc>
  <defs>
    <linearGradient id="bg" x1="0%" y1="0%" x2="100%" y2="100%">
      <stop offset="0%" stop-color="#f6f2ec" />
      <stop offset="100%" stop-color="#e4ded5" />
    </linearGradient>
    <linearGradient id="body" x1="0%" y1="0%" x2="100%" y2="100%">
      <stop offset="0%" stop-color="#2a2a30" />
      <stop offset="100%" stop-color="#0d0d10" />
    </linearGradient>
    <linearGradient id="print" x1="0%" y1="0%" x2="100%" y2="100%">
      <stop offset="0%" stop-color="#f2e7d2" />
      <stop offset="100%" stop-color="#c89d4a" />
    </linearGradient>
  </defs>
  <rect width="1200" height="1320" rx="48" fill="url(#bg)" />
  <circle cx="250" cy="220" r="180" fill="#c89d4a" opacity="0.16" />
  <circle cx="940" cy="260" r="210" fill="#ffffff" opacity="0.26" />
  <ellipse cx="600" cy="1220" rx="290" ry="52" fill="#000" opacity="0.16" />

  <path d="M330 292H870L930 460V1070H270V460z" fill="url(#body)" />
  <path d="M330 292H870L930 460V1070H270V460z" fill="none" stroke="#fff5e1" stroke-opacity="0.08" stroke-width="3"/>
  <path d="M350 310c24 40 68 82 122 112 39 22 88 37 128 42 40-5 89-20 128-42 54-30 98-72 122-112" fill="none" stroke="#fff5e1" stroke-opacity="0.12" stroke-width="5" stroke-linecap="round"/>
  <rect x="456" y="332" width="288" height="122" rx="60" fill="#050506" fill-opacity="0.35" />
  <path d="M454 338c0 56 20 92 46 106 26 13 50 15 100 15s74-2 100-15c26-14 46-50 46-106" fill="none" stroke="#fff5e1" stroke-opacity="0.08" stroke-width="4"/>
  <path d="M600 456v474" stroke="#fff5e1" stroke-opacity="0.1" stroke-width="5" stroke-linecap="round"/>
  <path d="M330 540c-64 78-88 162-78 324" fill="none" stroke="#fff5e1" stroke-opacity="0.06" stroke-width="4" stroke-linecap="round"/>
  <path d="M870 540c64 78 88 162 78 324" fill="none" stroke="#fff5e1" stroke-opacity="0.06" stroke-width="4" stroke-linecap="round"/>
  <rect x="438" y="698" width="324" height="174" rx="44" fill="#070708" fill-opacity="0.26" stroke="#fff5e1" stroke-opacity="0.08" />
  <text x="600" y="772" text-anchor="middle" font-family="Inter, Arial, sans-serif" font-size="60" font-weight="800" letter-spacing="0.18em" fill="url(#print)">MB</text>
  <rect x="468" y="818" width="264" height="4" rx="2" fill="url(#print)" opacity="0.75" />
  <text x="600" y="860" text-anchor="middle" font-family="Inter, Arial, sans-serif" font-size="21" font-weight="700" letter-spacing="0.32em" fill="#f2e7d2">MARVELOUS BLACK</text>
</svg>
